<svg width="13" height="17" viewBox="0 0 13 17" fill="none" xmlns="http://www.w3.org/2000/svg">
<circle cx="6.80859" cy="8.5" r="5.5" stroke="#3C1D07"/>
<path d="M6.81647 11.428C6.61114 11.428 6.43847 11.3627 6.29847 11.232C6.1678 11.092 6.10247 10.9193 6.10247 10.714V8.838H4.22647C4.02114 8.838 3.84847 8.768 3.70847 8.628C3.5778 8.488 3.51247 8.31533 3.51247 8.11C3.51247 7.90467 3.5778 7.73667 3.70847 7.606C3.84847 7.466 4.02114 7.396 4.22647 7.396H6.10247V5.52C6.10247 5.324 6.17247 5.156 6.31247 5.016C6.4618 4.876 6.6298 4.806 6.81647 4.806C7.03114 4.806 7.2038 4.876 7.33447 5.016C7.46514 5.14667 7.53047 5.31467 7.53047 5.52V7.396H9.40647C9.60247 7.396 9.77047 7.466 9.91047 7.606C10.0598 7.746 10.1345 7.91867 10.1345 8.124C10.1345 8.32 10.0598 8.488 9.91047 8.628C9.77047 8.768 9.60247 8.838 9.40647 8.838H7.53047V10.714C7.53047 10.9193 7.46514 11.092 7.33447 11.232C7.2038 11.3627 7.03114 11.428 6.81647 11.428Z" fill="#3C1D07"/>
</svg>
