<svg width="30" height="29" viewBox="0 0 30 29" fill="none" xmlns="http://www.w3.org/2000/svg">
<path d="M28.9071 8.85516C28.773 8.66131 28.5938 8.50286 28.385 8.39339C28.1763 8.28393 27.9441 8.2267 27.7083 8.22662H7.77729L6.09438 4.18703C5.87436 3.65461 5.50086 3.19971 5.02145 2.88027C4.54203 2.56083 3.97838 2.39131 3.40229 2.39329H0V5.30995H3.40229L10.3206 21.9131C10.4314 22.1787 10.6184 22.4056 10.8579 22.5652C11.0974 22.7248 11.3788 22.81 11.6667 22.81H23.3333C23.9415 22.81 24.4854 22.4322 24.6998 21.865L29.0748 10.1983C29.1575 9.97753 29.1854 9.74001 29.1562 9.50609C29.127 9.27217 29.0415 9.04882 28.9071 8.85516ZM22.3227 19.8933H12.6394L8.99354 11.1433H25.604L22.3227 19.8933Z" fill="#3C1D07"/>
<path d="M12.396 28.6433C13.6041 28.6433 14.5835 27.6639 14.5835 26.4558C14.5835 25.2476 13.6041 24.2683 12.396 24.2683C11.1879 24.2683 10.2085 25.2476 10.2085 26.4558C10.2085 27.6639 11.1879 28.6433 12.396 28.6433Z" fill="#3C1D07"/>
<path d="M22.6045 28.6433C23.8126 28.6433 24.792 27.6639 24.792 26.4558C24.792 25.2476 23.8126 24.2683 22.6045 24.2683C21.3964 24.2683 20.417 25.2476 20.417 26.4558C20.417 27.6639 21.3964 28.6433 22.6045 28.6433Z" fill="#3C1D07"/>
<path d="M27.0425 8.01827C26.9056 8.01827 26.7859 7.96693 26.6832 7.86427C26.5805 7.7616 26.5292 7.6384 26.5292 7.49467V1.232L25.7797 1.55027C25.6634 1.59818 25.5539 1.62213 25.4512 1.62213C25.3006 1.62213 25.174 1.57422 25.0713 1.4784C24.9755 1.38258 24.9276 1.25938 24.9276 1.1088C24.9276 0.999288 24.955 0.900044 25.0097 0.811066C25.0645 0.722088 25.15 0.657068 25.2664 0.616001L26.868 0.0410652C26.9022 0.0273761 26.9364 0.0171097 26.9707 0.0102654C27.0049 0.00342099 27.0357 0 27.0631 0C27.2205 0 27.3437 0.0513328 27.4327 0.153999C27.5285 0.249822 27.5764 0.376445 27.5764 0.533867V7.49467C27.5764 7.6384 27.5251 7.7616 27.4224 7.86427C27.3197 7.96693 27.1931 8.01827 27.0425 8.01827Z" fill="white"/>
</svg>
