<svg width="173" height="63" viewBox="0 0 173 63" fill="none" xmlns="http://www.w3.org/2000/svg">
<path d="M1.12451 50.0095C0.374838 50.0095 0 49.6347 0 48.885V9.83937C0 8.67321 0.312365 7.79859 0.937095 7.2155C1.56183 6.59077 2.45727 6.27841 3.62344 6.27841H18.6794C19.8456 6.27841 20.7202 6.59077 21.3033 7.2155C21.928 7.79859 22.2404 8.67321 22.2404 9.83937V48.885C22.2404 49.6347 21.8864 50.0095 21.1784 50.0095H15.3684C14.6603 50.0095 14.3063 49.6347 14.3063 48.885V13.4628H7.99655V48.885C7.99655 49.6347 7.62171 50.0095 6.87203 50.0095H1.12451Z" fill="#3C1D07"/>
<path d="M37.0036 50.6967C33.9632 50.6967 31.5059 49.7388 29.6317 47.823C27.7575 45.8655 26.8204 43.3041 26.8204 40.1388V28.3314C26.9037 25.2494 27.9033 22.7713 29.8192 20.8971C31.735 19.0229 34.2756 18.0858 37.4409 18.0858C40.3979 18.0858 42.8135 19.0437 44.6877 20.9596C46.6036 22.8338 47.5615 25.2702 47.5615 28.2689C47.5615 31.1427 46.6036 33.475 44.6877 35.2659C42.8135 37.0568 40.3563 37.9522 37.3159 37.9522H34.2547V40.5761C34.2547 41.5757 34.5046 42.367 35.0044 42.9501C35.5042 43.4915 36.1914 43.7622 37.066 43.7622C37.8573 43.7622 38.4821 43.5332 38.9402 43.075C39.44 42.6169 39.7524 41.9713 39.8773 41.1384C40.0023 40.4303 40.3771 40.0763 41.0018 40.0763H46.2496C46.9576 40.0763 47.3116 40.4512 47.3116 41.2008C47.1034 44.0329 46.0621 46.3236 44.188 48.0729C42.3138 49.8221 39.919 50.6967 37.0036 50.6967ZM37.3159 31.455C38.2322 31.455 38.9402 31.2051 39.44 30.7054C39.9398 30.1639 40.1897 29.4143 40.1897 28.4563C40.1897 27.3318 39.919 26.478 39.3775 25.8949C38.8777 25.3119 38.1489 25.0203 37.191 25.0203C36.2331 25.0203 35.5042 25.3119 35.0044 25.8949C34.5046 26.4364 34.2547 27.2069 34.2547 28.2064V31.455H37.3159Z" fill="#3C1D07"/>
<path d="M67.8418 32.3297C69.2162 33.2043 70.2782 34.3913 71.0279 35.8906C71.7776 37.3483 72.1524 39.0559 72.1524 41.0134V48.885C72.1524 49.6347 71.7984 50.0095 71.0904 50.0095H65.8427C65.1346 50.0095 64.7806 49.6347 64.7806 48.885V40.5761C64.7806 39.6182 64.5099 38.8685 63.9685 38.3271C63.4687 37.7856 62.7607 37.5149 61.8444 37.5149H59.283V48.885C59.283 49.6347 58.9082 50.0095 58.1585 50.0095H53.0357C52.286 50.0095 51.9112 49.6347 51.9112 48.885V19.8351C51.9112 19.0854 52.286 18.7105 53.0357 18.7105H58.1585C58.9082 18.7105 59.283 19.0854 59.283 19.8351V30.5804H61.0947L65.3429 19.6476C65.5095 19.0646 65.926 18.773 66.5923 18.773H71.9025C72.319 18.773 72.6106 18.898 72.7772 19.1479C72.9854 19.3561 73.0062 19.6476 72.8396 20.0225L67.8418 32.3297Z" fill="#3C1D07"/>
<path d="M85.8121 50.6967C82.6051 50.6967 80.0229 49.7388 78.0654 47.823C76.1079 45.9071 75.1292 43.3874 75.1292 40.2637C75.1292 37.5149 76.0663 35.2659 77.9405 33.5167C79.8563 31.7258 82.3136 30.8303 85.3123 30.8303H88.4359V28.144C88.4359 27.1861 88.186 26.4364 87.6863 25.8949C87.1865 25.3119 86.4993 25.0203 85.6246 25.0203C84.75 25.0203 84.0836 25.2702 83.6255 25.77C83.1674 26.2698 82.9175 26.9362 82.8758 27.7691C82.8342 28.3106 82.4593 28.5813 81.7513 28.5813H76.6285C75.9205 28.5813 75.5665 28.2064 75.5665 27.4568C75.8164 24.6247 76.8576 22.3548 78.6901 20.6472C80.5227 18.898 82.855 18.0233 85.6871 18.0233C88.7275 18.0233 91.1639 19.0021 92.9965 20.9596C94.8707 22.9171 95.8077 25.4576 95.8077 28.5813V40.5761C95.8077 43.6581 94.9123 46.1154 93.1214 47.9479C91.3722 49.7805 88.9357 50.6967 85.8121 50.6967ZM85.6871 43.6998C86.5617 43.6998 87.2281 43.429 87.6863 42.8876C88.186 42.3462 88.4359 41.5965 88.4359 40.6386V37.265H85.7496C84.75 37.265 83.9587 37.5358 83.3756 38.0772C82.8342 38.6186 82.5635 39.3475 82.5635 40.2637C82.5635 41.3466 82.8342 42.2004 83.3756 42.8251C83.9171 43.4082 84.6876 43.6998 85.6871 43.6998Z" fill="#3C1D07"/>
<path d="M110.654 18.0233C113.778 18.0233 116.298 19.0021 118.214 20.9596C120.129 22.9171 121.087 25.4576 121.087 28.5813V40.1388C121.087 42.1796 120.671 44.0121 119.838 45.6364C119.005 47.2607 117.88 48.531 116.464 49.4473C115.09 50.3219 113.57 50.7592 111.904 50.7592C110.363 50.7592 108.947 50.3427 107.656 49.5098V61.4421C107.656 62.1501 107.302 62.5041 106.594 62.5041H101.346C100.638 62.5041 100.284 62.1501 100.284 61.4421V28.5813C100.284 25.4576 101.242 22.9171 103.158 20.9596C105.073 19.0021 107.572 18.0233 110.654 18.0233ZM113.653 28.2064C113.653 27.2485 113.382 26.478 112.841 25.8949C112.299 25.3119 111.571 25.0203 110.654 25.0203C109.738 25.0203 109.009 25.3119 108.468 25.8949C107.926 26.478 107.656 27.2485 107.656 28.2064V40.5761C107.656 41.534 107.926 42.3045 108.468 42.8876C109.009 43.4707 109.738 43.7622 110.654 43.7622C111.571 43.7622 112.299 43.4707 112.841 42.8876C113.382 42.3045 113.653 41.534 113.653 40.5761V28.2064Z" fill="#3C1D07"/>
<path d="M140.346 7.34045C140.346 6.63242 140.7 6.27841 141.408 6.27841L144.078 0.372622C144.133 0.250627 144.306 0.250628 144.361 0.372622L147.031 6.27841C147.739 6.27841 148.093 6.63242 148.093 7.34045V48.885C148.093 49.6347 147.739 50.0095 147.031 50.0095H141.408C140.7 50.0095 140.346 49.6347 140.346 48.885L137.219 32.1369L134.036 48.885C134.036 49.6347 133.662 50.0095 132.912 50.0095H127.352C126.602 50.0095 126.227 49.6347 126.227 48.885V7.34045C126.227 6.63242 126.602 6.27841 127.352 6.27841L129.99 0.376741C130.045 0.253956 130.219 0.253956 130.274 0.376741L132.912 6.27841C133.662 6.27841 134.036 6.63242 134.036 7.34045L137.219 21.9218L140.346 7.34045Z" fill="#FFBB7C"/>
<path d="M162.879 18.0233C165.878 18.0233 168.315 18.9604 170.189 20.8346C172.063 22.7088 173 25.1661 173 28.2064V48.885C173 49.6347 172.625 50.0095 171.876 50.0095H166.815C166.107 50.0095 165.753 49.6347 165.753 48.885V39.1392H163.254L158.944 48.9475C158.652 49.6555 158.173 50.0095 157.507 50.0095H152.197C151.905 50.0095 151.655 49.9471 151.447 49.8221C151.28 49.6555 151.197 49.4681 151.197 49.2599C151.197 49.0516 151.259 48.8642 151.384 48.6976L157.007 37.39C155.549 36.557 154.404 35.37 153.571 33.829C152.78 32.288 152.384 30.5388 152.384 28.5813C152.384 26.4988 152.842 24.6663 153.758 23.0837C154.675 21.4594 155.924 20.2099 157.507 19.3353C159.131 18.4607 160.922 18.0233 162.879 18.0233ZM165.753 28.4563C165.753 27.3318 165.503 26.478 165.003 25.8949C164.504 25.3119 163.796 25.0203 162.879 25.0203C161.88 25.0203 161.109 25.3327 160.568 25.9574C160.026 26.5821 159.756 27.4776 159.756 28.6438C159.756 29.8516 160.026 30.7887 160.568 31.455C161.151 32.0798 161.963 32.3921 163.004 32.3921H165.753V28.4563Z" fill="#3C1D07"/>
<ellipse cx="137.259" cy="26.0939" rx="1.95228" ry="1.95228" fill="#3C1D07"/>
<path d="M126.194 25.8458L137.219 32.0745L148.119 25.8458L140.645 37.1821V48.6429C140.645 49.3997 141.258 50.0133 142.015 50.0133H132.548C133.304 50.0133 133.918 49.3997 133.918 48.6429V37.1821L126.194 25.8458Z" fill="white"/>
</svg>
