<svg width="35" height="35" viewBox="0 0 35 35" fill="none" xmlns="http://www.w3.org/2000/svg">
<path d="M5.8335 26.2501C5.8335 24.703 6.44808 23.2193 7.54204 22.1253C8.636 21.0313 10.1197 20.4167 11.6668 20.4167H23.3335C24.8806 20.4167 26.3643 21.0313 27.4583 22.1253C28.5522 23.2193 29.1668 24.703 29.1668 26.2501C29.1668 27.0236 28.8595 27.7655 28.3126 28.3125C27.7656 28.8595 27.0237 29.1667 26.2502 29.1667H8.75016C7.97661 29.1667 7.23475 28.8595 6.68777 28.3125C6.14079 27.7655 5.8335 27.0236 5.8335 26.2501Z" stroke="#FFC38C" stroke-width="3" stroke-linejoin="round"/>
<path d="M17.5 4.33337C20.7447 4.33337 23.375 6.9637 23.375 10.2084C23.375 13.453 20.7447 16.0834 17.5 16.0834C14.2553 16.0834 11.625 13.453 11.625 10.2084C11.625 6.9637 14.2553 4.33337 17.5 4.33337Z" stroke="#FFC38C" stroke-width="3"/>
</svg>
