<svg width="35" height="35" viewBox="0 0 35 35" fill="none" xmlns="http://www.w3.org/2000/svg">
<path d="M5.8335 26.2501C5.8335 24.703 6.44808 23.2193 7.54204 22.1253C8.636 21.0313 10.1197 20.4167 11.6668 20.4167H23.3335C24.8806 20.4167 26.3643 21.0313 27.4583 22.1253C28.5522 23.2193 29.1668 24.703 29.1668 26.2501C29.1668 27.0236 28.8595 27.7655 28.3126 28.3125C27.7656 28.8595 27.0237 29.1667 26.2502 29.1667H8.75016C7.97661 29.1667 7.23475 28.8595 6.68777 28.3125C6.14079 27.7655 5.8335 27.0236 5.8335 26.2501Z" stroke="#FFC38C" stroke-width="3" stroke-linejoin="round"/>
<path d="M17.5 4.33337C20.7447 4.33337 23.375 6.9637 23.375 10.2084C23.375 13.453 20.7447 16.0834 17.5 16.0834C14.2553 16.0834 11.625 13.453 11.625 10.2084C11.625 6.9637 14.2553 4.33337 17.5 4.33337Z" stroke="#FFC38C" stroke-width="3"/>
<rect x="22.5" y="0.5" width="10" height="10" rx="5" fill="#FFFBF8"/>
<rect x="22.5" y="0.5" width="10" height="10" rx="5" stroke="#FFC38C"/>
<path d="M27.4912 6.89904C27.3643 6.89904 27.2576 6.85577 27.171 6.76923C27.0903 6.67692 27.0499 6.57308 27.0499 6.45769V2.19135C27.0499 2.06442 27.0903 1.95769 27.171 1.87115C27.2576 1.78461 27.3643 1.74135 27.4912 1.74135C27.6182 1.74135 27.722 1.78461 27.8028 1.87115C27.8893 1.95769 27.9326 2.06442 27.9326 2.19135V6.45769C27.9326 6.57885 27.8864 6.68269 27.7941 6.76923C27.7076 6.85577 27.6066 6.89904 27.4912 6.89904ZM27.4912 8.5C27.3297 8.5 27.1883 8.44231 27.0672 8.32692C26.9518 8.21154 26.8941 8.07019 26.8941 7.90288C26.8941 7.73558 26.9518 7.59423 27.0672 7.47885C27.1883 7.35769 27.3297 7.29712 27.4912 7.29712C27.6585 7.29712 27.7999 7.35769 27.9153 7.47885C28.0307 7.59423 28.0883 7.73558 28.0883 7.90288C28.0883 8.07019 28.0278 8.21154 27.9066 8.32692C27.7912 8.44231 27.6528 8.5 27.4912 8.5Z" fill="#FFC38C"/>
</svg>
