<svg width="35" height="36" viewBox="0 0 35 36" fill="none" xmlns="http://www.w3.org/2000/svg">
<g clip-path="url(#clip0_366_11158)">
<path d="M5.83398 27.0321C5.83398 25.485 6.44857 24.0012 7.54253 22.9073C8.63649 21.8133 10.1202 21.1987 11.6673 21.1987H23.334C24.8811 21.1987 26.3648 21.8133 27.4588 22.9073C28.5527 24.0012 29.1673 25.485 29.1673 27.0321C29.1673 27.8056 28.86 28.5475 28.313 29.0945C27.7661 29.6414 27.0242 29.9487 26.2507 29.9487H8.75065C7.9771 29.9487 7.23524 29.6414 6.68826 29.0945C6.14128 28.5475 5.83398 27.8056 5.83398 27.0321Z" stroke="#3C1D07" stroke-width="3" stroke-linejoin="round"/>
<path d="M17.5 5.11523C20.7447 5.11523 23.375 7.74556 23.375 10.9902C23.375 14.2349 20.7447 16.8652 17.5 16.8652C14.2553 16.8652 11.625 14.2349 11.625 10.9902C11.625 7.74556 14.2553 5.11523 17.5 5.11523Z" stroke="#3C1D07" stroke-width="3"/>
<rect x="22.5" y="1.28174" width="10" height="10" rx="5" fill="#FFFBF8"/>
<rect x="22.5" y="1.28174" width="10" height="10" rx="5" stroke="#3C1D07"/>
<path d="M27.4907 7.68078C27.3638 7.68078 27.2571 7.63751 27.1706 7.55097C27.0898 7.45866 27.0494 7.35481 27.0494 7.23943V2.97308C27.0494 2.84616 27.0898 2.73943 27.1706 2.65289C27.2571 2.56635 27.3638 2.52308 27.4907 2.52308C27.6177 2.52308 27.7215 2.56635 27.8023 2.65289C27.8888 2.73943 27.9321 2.84616 27.9321 2.97308V7.23943C27.9321 7.36058 27.8859 7.46443 27.7936 7.55097C27.7071 7.63751 27.6061 7.68078 27.4907 7.68078ZM27.4907 9.28174C27.3292 9.28174 27.1879 9.22405 27.0667 9.10866C26.9513 8.99328 26.8936 8.85193 26.8936 8.68462C26.8936 8.51732 26.9513 8.37597 27.0667 8.26058C27.1879 8.13943 27.3292 8.07885 27.4907 8.07885C27.6581 8.07885 27.7994 8.13943 27.9148 8.26058C28.0302 8.37597 28.0879 8.51732 28.0879 8.68462C28.0879 8.85193 28.0273 8.99328 27.9061 9.10866C27.7907 9.22405 27.6523 9.28174 27.4907 9.28174Z" fill="#3C1D07"/>
</g>
<defs>
<clipPath id="clip0_366_11158">
<rect width="35" height="35" fill="white" transform="translate(0 0.781738)"/>
</clipPath>
</defs>
</svg>
