<svg width="24" height="18" viewBox="0 0 24 18" fill="none" xmlns="http://www.w3.org/2000/svg">
<path d="M8.32478 13.725L21.0373 1.0125C21.3373 0.7125 21.6873 0.5625 22.0873 0.5625C22.4873 0.5625 22.8373 0.7125 23.1373 1.0125C23.4373 1.3125 23.5873 1.669 23.5873 2.082C23.5873 2.495 23.4373 2.851 23.1373 3.15L9.37478 16.95C9.07478 17.25 8.72478 17.4 8.32478 17.4C7.92478 17.4 7.57478 17.25 7.27478 16.95L0.824782 10.5C0.524782 10.2 0.380782 9.844 0.392782 9.432C0.404782 9.02 0.561282 8.6635 0.862282 8.3625C1.16328 8.0615 1.51978 7.9115 1.93178 7.9125C2.34378 7.9135 2.69978 8.0635 2.99978 8.3625L8.32478 13.725Z" fill="#FFC38C"/>
</svg>
