<svg width="35" height="35" viewBox="0 0 35 35" fill="none" xmlns="http://www.w3.org/2000/svg">
<path d="M17.925 26.2185C18.45 26.2185 18.894 26.037 19.257 25.674C19.62 25.311 19.801 24.8675 19.8 24.3435C19.799 23.8195 19.618 23.3755 19.257 23.0115C18.896 22.6475 18.452 22.4665 17.925 22.4685C17.398 22.4705 16.9545 22.652 16.5945 23.013C16.2345 23.374 16.053 23.8175 16.05 24.3435C16.047 24.8695 16.2285 25.3135 16.5945 25.6755C16.9605 26.0375 17.404 26.2185 17.925 26.2185ZM18 32.2185C15.925 32.2185 13.975 31.8245 12.15 31.0365C10.325 30.2485 8.7375 29.18 7.3875 27.831C6.0375 26.482 4.969 24.8945 4.182 23.0685C3.395 21.2425 3.001 19.2925 3 17.2185C2.999 15.1445 3.393 13.1945 4.182 11.3685C4.971 9.5425 6.0395 7.955 7.3875 6.606C8.7355 5.25701 10.323 4.18851 12.15 3.40051C13.977 2.61251 15.927 2.21851 18 2.21851C20.073 2.21851 22.023 2.61251 23.85 3.40051C25.677 4.18851 27.2645 5.25701 28.6125 6.606C29.9605 7.955 31.0295 9.5425 31.8195 11.3685C32.6095 13.1945 33.003 15.1445 33 17.2185C32.997 19.2925 32.603 21.2425 31.818 23.0685C31.033 24.8945 29.9645 26.482 28.6125 27.831C27.2605 29.18 25.673 30.249 23.85 31.038C22.027 31.827 20.077 32.2205 18 32.2185ZM18 29.2185C21.35 29.2185 24.1875 28.056 26.5125 25.731C28.8375 23.406 30 20.5685 30 17.2185C30 13.8685 28.8375 11.031 26.5125 8.706C24.1875 6.381 21.35 5.2185 18 5.2185C14.65 5.2185 11.8125 6.381 9.4875 8.706C7.1625 11.031 6 13.8685 6 17.2185C6 20.5685 7.1625 23.406 9.4875 25.731C11.8125 28.056 14.65 29.2185 18 29.2185ZM18.15 10.7685C18.775 10.7685 19.319 10.9685 19.782 11.3685C20.245 11.7685 20.476 12.2685 20.475 12.8685C20.475 13.4185 20.3065 13.906 19.9695 14.331C19.6325 14.756 19.251 15.156 18.825 15.531C18.25 16.031 17.744 16.581 17.307 17.181C16.87 17.781 16.651 18.456 16.65 19.206C16.65 19.556 16.7815 19.85 17.0445 20.088C17.3075 20.326 17.6135 20.4445 17.9625 20.4435C18.3375 20.4435 18.6565 20.3185 18.9195 20.0685C19.1825 19.8185 19.351 19.506 19.425 19.131C19.525 18.606 19.75 18.1375 20.1 17.7255C20.45 17.3135 20.825 16.9195 21.225 16.5435C21.8 15.9935 22.294 15.3935 22.707 14.7435C23.12 14.0935 23.326 13.3685 23.325 12.5685C23.325 11.2935 22.8065 10.25 21.7695 9.438C20.7325 8.626 19.526 8.2195 18.15 8.2185C17.2 8.2185 16.294 8.4185 15.432 8.8185C14.57 9.2185 13.9135 9.831 13.4625 10.656C13.2875 10.956 13.2315 11.275 13.2945 11.613C13.3575 11.951 13.526 12.207 13.8 12.381C14.15 12.581 14.5125 12.6435 14.8875 12.5685C15.2625 12.4935 15.575 12.281 15.825 11.931C16.1 11.556 16.444 11.2685 16.857 11.0685C17.27 10.8685 17.701 10.7685 18.15 10.7685Z" fill="#3C1D07"/>
</svg>
