<svg width="15" height="15" viewBox="0 0 15 15" fill="none" xmlns="http://www.w3.org/2000/svg">
<path d="M12.4219 6.5625C12.4219 10.0781 7.5 13.3594 7.5 13.3594C7.5 13.3594 2.57812 10.0781 2.57812 6.5625C2.57812 5.25714 3.09668 4.00524 4.01971 3.08221C4.94274 2.15918 6.19464 1.64063 7.5 1.64062C8.80536 1.64063 10.0573 2.15918 10.9803 3.08221C11.9033 4.00524 12.4219 5.25714 12.4219 6.5625Z" stroke="#FFFBF8" stroke-linecap="round" stroke-linejoin="round"/>
<path d="M7.5 7.73438C8.14721 7.73438 8.67188 7.20971 8.67188 6.5625C8.67188 5.91529 8.14721 5.39062 7.5 5.39062C6.85279 5.39062 6.32812 5.91529 6.32812 6.5625C6.32812 7.20971 6.85279 7.73438 7.5 7.73438Z" fill="#FFFBF8" stroke="#FFFBF8" stroke-linecap="round" stroke-linejoin="round"/>
</svg>
