<svg width="28" height="34" viewBox="0 0 28 34" fill="none" xmlns="http://www.w3.org/2000/svg">
<path d="M14 0.375C10.5368 0.378929 7.2166 1.75641 4.76776 4.20526C2.31891 6.6541 0.941429 9.97432 0.9375 13.4375C0.9375 24.6148 12.8125 33.0565 13.3187 33.4098C13.5183 33.5496 13.7562 33.6247 14 33.6247C14.2438 33.6247 14.4817 33.5496 14.6813 33.4098C15.1875 33.0565 27.0625 24.6148 27.0625 13.4375C27.0586 9.97432 25.6811 6.6541 23.2322 4.20526C20.7834 1.75641 17.4632 0.378929 14 0.375ZM14 8.6875C14.9395 8.6875 15.8578 8.96608 16.639 9.48802C17.4201 10.01 18.0289 10.7518 18.3884 11.6198C18.7479 12.4877 18.842 13.4428 18.6587 14.3642C18.4755 15.2856 18.0231 16.132 17.3588 16.7963C16.6945 17.4606 15.8481 17.913 14.9267 18.0962C14.0053 18.2795 13.0502 18.1854 12.1823 17.8259C11.3143 17.4664 10.5725 16.8576 10.0505 16.0765C9.52858 15.2953 9.25 14.377 9.25 13.4375C9.25 12.1777 9.75044 10.9695 10.6412 10.0787C11.532 9.18794 12.7402 8.6875 14 8.6875Z" fill="#FFC38C"/>
</svg>
